<?xml version="1.0" encoding="utf-8"?>
<svg version="1.0" width="480pt" height="480pt" viewBox="0.444 -25.268 477.426 440.804" preserveAspectRatio="xMidYMid meet" id="svg8" xmlns="http://www.w3.org/2000/svg" xmlns:bx="https://boxy-svg.com">
  <defs id="defs12">
    <bx:grid x="0.564" y="-25.389" width="100" height="100"/>
  </defs>
  <g transform="matrix(0.09902915,0,0,-0.09761723,2.0828804,514.28544)" id="g6" style="fill:#000000;stroke:none">
    <path d="m 1929,5411 c -82,-26 -97,-55 -114,-226 -16,-159 -37,-216 -105,-279 -71,-66 -122,-89 -189,-84 -68,5 -107,29 -233,146 -156,145 -171,141 -412,-96 -216,-214 -236,-240 -236,-299 0,-59 9,-73 105,-174 102,-108 128,-159 128,-254 0,-76 -22,-158 -55,-200 -42,-53 -90,-68 -248,-75 -158,-8 -187,-15 -219,-56 -20,-26 -21,-36 -21,-331 0,-325 1,-333 52,-380 35,-32 90,-43 216,-43 129,0 161,-10 215,-65 85,-87 109,-198 65,-292 -12,-26 -59,-86 -104,-133 -116,-123 -135,-170 -98,-243 31,-62 339,-364 405,-397 76,-39 125,-23 254,86 102,85 150,108 235,108 113,-1 207,-58 246,-149 12,-28 19,-84 23,-187 6,-127 9,-151 27,-175 35,-47 66,-52 354,-52 300,-1 318,2 353,72 16,31 20,62 21,175 3,155 13,189 78,254 51,51 110,79 179,85 84,8 143,-23 267,-140 114,-108 144,-121 207,-91 41,19 380,366 408,416 22,41 22,109 0,151 -9,18 -51,70 -95,117 -43,47 -88,105 -101,130 -45,90 -18,236 56,308 56,54 97,66 254,72 218,8 218,7 211,395 -6,304 -10,324 -80,355 -27,11 -80,21 -143,25 -139,9 -189,27 -250,90 -59,60 -105,146 -105,195 0,58 42,130 137,235 106,118 113,130 113,188 0,62 -30,103 -232,309 -202,206 -223,219 -302,177 -25,-13 -89,-64 -143,-113 -54,-49 -112,-95 -130,-102 -18,-8 -61,-14 -97,-14 -53,0 -75,6 -127,33 -115,59 -149,134 -149,325 0,117 -13,158 -58,191 -29,20 -40,21 -284,20 -139,0 -265,-4 -279,-8 z m 248.032,-959.914 c 241,1 366.458,-67.312 419.458,-92.312 31,-15 165.951,-87.732 262.017,-188.122 129.86,-135.705 111.192,-123.756 171.799,-236.897 51.414,-95.979 106.72,-227.224 106.72,-389.556 0,-314.024 -78.027,-472.965 -144.797,-575.15 -47.69,-72.984 -151.09,-180.121 -190.122,-219.535 -42.262,-42.675 -158.526,-113.327 -200.526,-135.327 -75,-39 -281.543,-102.132 -434.541,-98.053 -134.317,3.581 -279.109,43.914 -382.616,104.965 -112.717,66.483 -215.168,157.566 -297.168,251.395 -49.354,56.473 -77.746,87.703 -132.746,204.703 -35,75 -93.921,298.115 -93.921,402.115 0,102 11.473,185.567 59.345,327.402 46.583,138.015 142.429,276.76 239.328,382.312 107.645,117.258 156.668,132.202 221.221,164.091 117.576,58.083 263.549,96.969 396.549,97.969 z" style="fill:#f6bb3f" id="path2"/>
    <path d="m 4123,3143 c -9,-3 -13,-28 -13,-76 0,-157 -23,-177 -198,-177 -100,0 -114,-2 -162,-27 -84,-44 -91,-79 -25,-112 52,-25 168,-152 202,-221 114,-229 72,-493 -108,-670 -114,-114 -274,-177 -419,-167 -162,11 -291,83 -426,240 -23,26 -48,47 -57,47 -27,0 -87,-60 -114,-114 -23,-44 -27,-68 -32,-182 -5,-101 -10,-137 -24,-158 -20,-30 -54,-46 -98,-46 -16,0 -29,-4 -29,-10 0,-5 30,-41 68,-80 89,-92 100,-92 218,1 95,75 136,84 210,48 67,-32 89,-76 91,-182 2,-137 18,-147 238,-147 208,0 224,11 223,161 -1,82 21,132 73,166 50,33 106,40 148,18 18,-9 60,-41 93,-72 56,-51 63,-55 99,-50 45,6 68,25 192,154 112,118 113,127 22,236 -40,50 -67,91 -71,113 -13,69 16,162 56,184 11,6 61,20 111,31 109,24 147,41 159,75 6,14 10,92 10,173 0,146 0,148 -26,172 -22,21 -39,25 -119,30 -105,7 -154,29 -181,82 -46,88 -35,146 41,221 101,99 99,122 -21,252 -80,88 -99,100 -131,87 z" style="fill:#ffffff;stroke:#2e3b51;paint-order:stroke" id="path4"/>
  </g>
</svg>